<?xml version="1.0" encoding="UTF-8" standalone="no"?>
<!DOCTYPE svg PUBLIC "-//W3C//DTD SVG 1.1//EN"
 "http://www.w3.org/Graphics/SVG/1.1/DTD/svg11.dtd">
<!-- Generated by graphviz version 2.43.0 (0)
 -->
<!-- Title: mainwindow.cpp Pages: 1 -->
<svg width="1161pt" height="247pt"
 viewBox="0.00 0.00 1161.00 247.00" xmlns="http://www.w3.org/2000/svg" xmlns:xlink="http://www.w3.org/1999/xlink">
<g id="graph0" class="graph" transform="scale(1 1) rotate(0) translate(4 243)">
<title>mainwindow.cpp</title>
<!-- Node1 -->
<g id="Node000001" class="node">
<title>Node1</title>
<g id="a_Node000001"><a xlink:title=" ">
<polygon fill="#999999" stroke="#666666" points="894,-239 796,-239 796,-220 894,-220 894,-239"/>
<text text-anchor="middle" x="845" y="-227" font-family="Helvetica,sans-Serif" font-size="10.00">mainwindow.cpp</text>
</a>
</g>
</g>
<!-- Node2 -->
<g id="Node000002" class="node">
<title>Node2</title>
<g id="a_Node000002"><a xlink:href="mainwindow_8h.html" target="_top" xlink:title=" ">
<polygon fill="white" stroke="#666666" points="678.5,-184 591.5,-184 591.5,-165 678.5,-165 678.5,-184"/>
<text text-anchor="middle" x="635" y="-172" font-family="Helvetica,sans-Serif" font-size="10.00">mainwindow.h</text>
</a>
</g>
</g>
<!-- Node1&#45;&gt;Node2 -->
<g id="edge1_Node000001_Node000002" class="edge">
<title>Node1&#45;&gt;Node2</title>
<g id="a_edge1_Node000001_Node000002"><a xlink:title=" ">
<path fill="none" stroke="#63b8ff" d="M811.26,-219.98C775.32,-210.91 718.28,-196.52 678.87,-186.57"/>
<polygon fill="#63b8ff" stroke="#63b8ff" points="679.56,-183.14 669,-184.08 677.84,-189.92 679.56,-183.14"/>
</a>
</g>
</g>
<!-- Node5 -->
<g id="Node000005" class="node">
<title>Node5</title>
<g id="a_Node000005"><a xlink:title=" ">
<polygon fill="#e0e0e0" stroke="#999999" points="219.5,-74 160.5,-74 160.5,-55 219.5,-55 219.5,-74"/>
<text text-anchor="middle" x="190" y="-62" font-family="Helvetica,sans-Serif" font-size="10.00">QWidget</text>
</a>
</g>
</g>
<!-- Node1&#45;&gt;Node5 -->
<g id="edge24_Node000001_Node000005" class="edge">
<title>Node1&#45;&gt;Node5</title>
<g id="a_edge24_Node000001_Node000005"><a xlink:title=" ">
<path fill="none" stroke="#63b8ff" d="M795.93,-222.4C705.43,-210.34 506.8,-180.11 346,-129 299.98,-114.37 248.42,-92.2 217.62,-78.29"/>
<polygon fill="#63b8ff" stroke="#63b8ff" points="218.93,-75.05 208.38,-74.09 216.03,-81.42 218.93,-75.05"/>
</a>
</g>
</g>
<!-- Node23 -->
<g id="Node000023" class="node">
<title>Node23</title>
<g id="a_Node000023"><a xlink:title=" ">
<polygon fill="#e0e0e0" stroke="#999999" points="797.5,-184 696.5,-184 696.5,-165 797.5,-165 797.5,-184"/>
<text text-anchor="middle" x="747" y="-172" font-family="Helvetica,sans-Serif" font-size="10.00">ui_mainwindow.h</text>
</a>
</g>
</g>
<!-- Node1&#45;&gt;Node23 -->
<g id="edge23_Node000001_Node000023" class="edge">
<title>Node1&#45;&gt;Node23</title>
<g id="a_edge23_Node000001_Node000023"><a xlink:title=" ">
<path fill="none" stroke="#63b8ff" d="M829.25,-219.98C813.77,-211.61 789.91,-198.7 771.86,-188.95"/>
<polygon fill="#63b8ff" stroke="#63b8ff" points="773.49,-185.85 763.03,-184.17 770.16,-192.01 773.49,-185.85"/>
</a>
</g>
</g>
<!-- Node24 -->
<g id="Node000024" class="node">
<title>Node24</title>
<g id="a_Node000024"><a xlink:title=" ">
<polygon fill="#e0e0e0" stroke="#999999" points="874.5,-184 815.5,-184 815.5,-165 874.5,-165 874.5,-184"/>
<text text-anchor="middle" x="845" y="-172" font-family="Helvetica,sans-Serif" font-size="10.00">QSplitter</text>
</a>
</g>
</g>
<!-- Node1&#45;&gt;Node24 -->
<g id="edge25_Node000001_Node000024" class="edge">
<title>Node1&#45;&gt;Node24</title>
<g id="a_edge25_Node000001_Node000024"><a xlink:title=" ">
<path fill="none" stroke="#63b8ff" d="M845,-219.75C845,-212.8 845,-202.85 845,-194.13"/>
<polygon fill="#63b8ff" stroke="#63b8ff" points="848.5,-194.09 845,-184.09 841.5,-194.09 848.5,-194.09"/>
</a>
</g>
</g>
<!-- Node25 -->
<g id="Node000025" class="node">
<title>Node25</title>
<g id="a_Node000025"><a xlink:title=" ">
<polygon fill="#e0e0e0" stroke="#999999" points="943,-184 893,-184 893,-165 943,-165 943,-184"/>
<text text-anchor="middle" x="918" y="-172" font-family="Helvetica,sans-Serif" font-size="10.00">QLabel</text>
</a>
</g>
</g>
<!-- Node1&#45;&gt;Node25 -->
<g id="edge26_Node000001_Node000025" class="edge">
<title>Node1&#45;&gt;Node25</title>
<g id="a_edge26_Node000001_Node000025"><a xlink:title=" ">
<path fill="none" stroke="#63b8ff" d="M856.73,-219.98C867.73,-212 884.42,-199.88 897.6,-190.31"/>
<polygon fill="#63b8ff" stroke="#63b8ff" points="900.02,-192.88 906.06,-184.17 895.91,-187.21 900.02,-192.88"/>
</a>
</g>
</g>
<!-- Node26 -->
<g id="Node000026" class="node">
<title>Node26</title>
<g id="a_Node000026"><a xlink:title=" ">
<polygon fill="#e0e0e0" stroke="#999999" points="1044.5,-184 961.5,-184 961.5,-165 1044.5,-165 1044.5,-184"/>
<text text-anchor="middle" x="1003" y="-172" font-family="Helvetica,sans-Serif" font-size="10.00">QHBoxLayout</text>
</a>
</g>
</g>
<!-- Node1&#45;&gt;Node26 -->
<g id="edge27_Node000001_Node000026" class="edge">
<title>Node1&#45;&gt;Node26</title>
<g id="a_edge27_Node000001_Node000026"><a xlink:title=" ">
<path fill="none" stroke="#63b8ff" d="M870.39,-219.98C896.8,-211.13 938.35,-197.19 967.89,-187.28"/>
<polygon fill="#63b8ff" stroke="#63b8ff" points="969.05,-190.58 977.42,-184.08 966.82,-183.94 969.05,-190.58"/>
</a>
</g>
</g>
<!-- Node27 -->
<g id="Node000027" class="node">
<title>Node27</title>
<g id="a_Node000027"><a xlink:title=" ">
<polygon fill="#e0e0e0" stroke="#999999" points="1153,-184 1063,-184 1063,-165 1153,-165 1153,-184"/>
<text text-anchor="middle" x="1108" y="-172" font-family="Helvetica,sans-Serif" font-size="10.00">QSerialPortInfo</text>
</a>
</g>
</g>
<!-- Node1&#45;&gt;Node27 -->
<g id="edge28_Node000001_Node000027" class="edge">
<title>Node1&#45;&gt;Node27</title>
<g id="a_edge28_Node000001_Node000027"><a xlink:title=" ">
<path fill="none" stroke="#63b8ff" d="M887.26,-219.98C933.04,-210.76 1006.14,-196.03 1055.55,-186.07"/>
<polygon fill="#63b8ff" stroke="#63b8ff" points="1056.3,-189.49 1065.41,-184.08 1054.92,-182.63 1056.3,-189.49"/>
</a>
</g>
</g>
<!-- Node3 -->
<g id="Node000003" class="node">
<title>Node3</title>
<g id="a_Node000003"><a xlink:title=" ">
<polygon fill="#e0e0e0" stroke="#999999" points="1006.5,-129 919.5,-129 919.5,-110 1006.5,-110 1006.5,-129"/>
<text text-anchor="middle" x="963" y="-117" font-family="Helvetica,sans-Serif" font-size="10.00">QMainWindow</text>
</a>
</g>
</g>
<!-- Node2&#45;&gt;Node3 -->
<g id="edge2_Node000002_Node000003" class="edge">
<title>Node2&#45;&gt;Node3</title>
<g id="a_edge2_Node000002_Node000003"><a xlink:title=" ">
<path fill="none" stroke="#63b8ff" d="M678.56,-166.46C738.1,-156.84 844.87,-139.59 909.3,-129.18"/>
<polygon fill="#63b8ff" stroke="#63b8ff" points="909.95,-132.62 919.26,-127.57 908.83,-125.71 909.95,-132.62"/>
</a>
</g>
</g>
<!-- Node4 -->
<g id="Node000004" class="node">
<title>Node4</title>
<g id="a_Node000004"><a xlink:href="gamewidget_8h.html" target="_top" xlink:title=" ">
<polygon fill="white" stroke="#666666" points="441,-129 355,-129 355,-110 441,-110 441,-129"/>
<text text-anchor="middle" x="398" y="-117" font-family="Helvetica,sans-Serif" font-size="10.00">gamewidget.h</text>
</a>
</g>
</g>
<!-- Node2&#45;&gt;Node4 -->
<g id="edge3_Node000002_Node000004" class="edge">
<title>Node2&#45;&gt;Node4</title>
<g id="a_edge3_Node000002_Node000004"><a xlink:title=" ">
<path fill="none" stroke="#63b8ff" d="M596.92,-164.98C556.01,-155.84 490.89,-141.27 446.38,-131.32"/>
<polygon fill="#63b8ff" stroke="#63b8ff" points="446.9,-127.85 436.38,-129.08 445.37,-134.68 446.9,-127.85"/>
</a>
</g>
</g>
<!-- Node13 -->
<g id="Node000013" class="node">
<title>Node13</title>
<g id="a_Node000013"><a xlink:href="sensorreader_8h.html" target="_top" xlink:title=" ">
<polygon fill="white" stroke="#666666" points="629.5,-129 540.5,-129 540.5,-110 629.5,-110 629.5,-129"/>
<text text-anchor="middle" x="585" y="-117" font-family="Helvetica,sans-Serif" font-size="10.00">sensorreader.h</text>
</a>
</g>
</g>
<!-- Node2&#45;&gt;Node13 -->
<g id="edge12_Node000002_Node000013" class="edge">
<title>Node2&#45;&gt;Node13</title>
<g id="a_edge12_Node000002_Node000013"><a xlink:title=" ">
<path fill="none" stroke="#63b8ff" d="M626.74,-164.75C619.54,-157.11 608.89,-145.82 600.15,-136.56"/>
<polygon fill="#63b8ff" stroke="#63b8ff" points="602.51,-133.96 593.1,-129.09 597.42,-138.76 602.51,-133.96"/>
</a>
</g>
</g>
<!-- Node17 -->
<g id="Node000017" class="node">
<title>Node17</title>
<g id="a_Node000017"><a xlink:href="chartpanel_8h.html" target="_top" xlink:title=" ">
<polygon fill="white" stroke="#666666" points="190.5,-129 113.5,-129 113.5,-110 190.5,-110 190.5,-129"/>
<text text-anchor="middle" x="152" y="-117" font-family="Helvetica,sans-Serif" font-size="10.00">chartpanel.h</text>
</a>
</g>
</g>
<!-- Node2&#45;&gt;Node17 -->
<g id="edge16_Node000002_Node000017" class="edge">
<title>Node2&#45;&gt;Node17</title>
<g id="a_edge16_Node000002_Node000017"><a xlink:title=" ">
<path fill="none" stroke="#63b8ff" d="M591.29,-168.7C501.08,-158.81 294.91,-136.18 200.64,-125.84"/>
<polygon fill="#63b8ff" stroke="#63b8ff" points="200.85,-122.34 190.53,-124.73 200.09,-129.3 200.85,-122.34"/>
</a>
</g>
</g>
<!-- Node20 -->
<g id="Node000020" class="node">
<title>Node20</title>
<g id="a_Node000020"><a xlink:title=" ">
<polygon fill="#e0e0e0" stroke="#999999" points="724.5,-129 647.5,-129 647.5,-110 724.5,-110 724.5,-129"/>
<text text-anchor="middle" x="686" y="-117" font-family="Helvetica,sans-Serif" font-size="10.00">QComboBox</text>
</a>
</g>
</g>
<!-- Node2&#45;&gt;Node20 -->
<g id="edge20_Node000002_Node000020" class="edge">
<title>Node2&#45;&gt;Node20</title>
<g id="a_edge20_Node000002_Node000020"><a xlink:title=" ">
<path fill="none" stroke="#63b8ff" d="M643.42,-164.75C650.77,-157.11 661.63,-145.82 670.54,-136.56"/>
<polygon fill="#63b8ff" stroke="#63b8ff" points="673.32,-138.72 677.74,-129.09 668.28,-133.87 673.32,-138.72"/>
</a>
</g>
</g>
<!-- Node21 -->
<g id="Node000021" class="node">
<title>Node21</title>
<g id="a_Node000021"><a xlink:title=" ">
<polygon fill="#e0e0e0" stroke="#999999" points="823,-129 743,-129 743,-110 823,-110 823,-129"/>
<text text-anchor="middle" x="783" y="-117" font-family="Helvetica,sans-Serif" font-size="10.00">QPushButton</text>
</a>
</g>
</g>
<!-- Node2&#45;&gt;Node21 -->
<g id="edge21_Node000002_Node000021" class="edge">
<title>Node2&#45;&gt;Node21</title>
<g id="a_edge21_Node000002_Node000021"><a xlink:title=" ">
<path fill="none" stroke="#63b8ff" d="M658.78,-164.98C683.23,-156.23 721.53,-142.51 749.15,-132.62"/>
<polygon fill="#63b8ff" stroke="#63b8ff" points="750.55,-135.84 758.79,-129.17 748.19,-129.25 750.55,-135.84"/>
</a>
</g>
</g>
<!-- Node22 -->
<g id="Node000022" class="node">
<title>Node22</title>
<g id="a_Node000022"><a xlink:title=" ">
<polygon fill="#e0e0e0" stroke="#999999" points="901,-129 841,-129 841,-110 901,-110 901,-129"/>
<text text-anchor="middle" x="871" y="-117" font-family="Helvetica,sans-Serif" font-size="10.00">QToolBar</text>
</a>
</g>
</g>
<!-- Node2&#45;&gt;Node22 -->
<g id="edge22_Node000002_Node000022" class="edge">
<title>Node2&#45;&gt;Node22</title>
<g id="a_edge22_Node000002_Node000022"><a xlink:title=" ">
<path fill="none" stroke="#63b8ff" d="M672.92,-164.98C716.19,-155.27 786.68,-139.44 830.86,-129.51"/>
<polygon fill="#63b8ff" stroke="#63b8ff" points="831.69,-132.92 840.68,-127.31 830.16,-126.09 831.69,-132.92"/>
</a>
</g>
</g>
<!-- Node4&#45;&gt;Node5 -->
<g id="edge4_Node000004_Node000005" class="edge">
<title>Node4&#45;&gt;Node5</title>
<g id="a_edge4_Node000004_Node000005"><a xlink:title=" ">
<path fill="none" stroke="#63b8ff" d="M364.58,-109.98C327.71,-100.59 268.44,-85.49 229.35,-75.53"/>
<polygon fill="#63b8ff" stroke="#63b8ff" points="230.19,-72.13 219.63,-73.05 228.46,-78.91 230.19,-72.13"/>
</a>
</g>
</g>
<!-- Node6 -->
<g id="Node000006" class="node">
<title>Node6</title>
<g id="a_Node000006"><a xlink:title=" ">
<polygon fill="#e0e0e0" stroke="#999999" points="496,-74 426,-74 426,-55 496,-55 496,-74"/>
<text text-anchor="middle" x="461" y="-62" font-family="Helvetica,sans-Serif" font-size="10.00">QKeyEvent</text>
</a>
</g>
</g>
<!-- Node4&#45;&gt;Node6 -->
<g id="edge5_Node000004_Node000006" class="edge">
<title>Node4&#45;&gt;Node6</title>
<g id="a_edge5_Node000004_Node000006"><a xlink:title=" ">
<path fill="none" stroke="#63b8ff" d="M408.12,-109.98C417.44,-102.15 431.47,-90.34 442.74,-80.86"/>
<polygon fill="#63b8ff" stroke="#63b8ff" points="445.29,-83.29 450.69,-74.17 440.79,-77.93 445.29,-83.29"/>
</a>
</g>
</g>
<!-- Node7 -->
<g id="Node000007" class="node">
<title>Node7</title>
<g id="a_Node000007"><a xlink:title=" ">
<polygon fill="#e0e0e0" stroke="#999999" points="572,-74 514,-74 514,-55 572,-55 572,-74"/>
<text text-anchor="middle" x="543" y="-62" font-family="Helvetica,sans-Serif" font-size="10.00">QPainter</text>
</a>
</g>
</g>
<!-- Node4&#45;&gt;Node7 -->
<g id="edge6_Node000004_Node000007" class="edge">
<title>Node4&#45;&gt;Node7</title>
<g id="a_edge6_Node000004_Node000007"><a xlink:title=" ">
<path fill="none" stroke="#63b8ff" d="M421.3,-109.98C445.25,-101.23 482.78,-87.51 509.83,-77.62"/>
<polygon fill="#63b8ff" stroke="#63b8ff" points="511.09,-80.89 519.28,-74.17 508.69,-74.32 511.09,-80.89"/>
</a>
</g>
</g>
<!-- Node8 -->
<g id="Node000008" class="node">
<title>Node8</title>
<g id="a_Node000008"><a xlink:title=" ">
<polygon fill="#e0e0e0" stroke="#999999" points="290.5,-74 237.5,-74 237.5,-55 290.5,-55 290.5,-74"/>
<text text-anchor="middle" x="264" y="-62" font-family="Helvetica,sans-Serif" font-size="10.00">QTimer</text>
</a>
</g>
</g>
<!-- Node4&#45;&gt;Node8 -->
<g id="edge7_Node000004_Node000008" class="edge">
<title>Node4&#45;&gt;Node8</title>
<g id="a_edge7_Node000004_Node000008"><a xlink:title=" ">
<path fill="none" stroke="#63b8ff" d="M376.47,-109.98C354.53,-101.3 320.26,-87.75 295.31,-77.88"/>
<polygon fill="#63b8ff" stroke="#63b8ff" points="296.51,-74.59 285.92,-74.17 293.93,-81.1 296.51,-74.59"/>
</a>
</g>
</g>
<!-- Node9 -->
<g id="Node000009" class="node">
<title>Node9</title>
<g id="a_Node000009"><a xlink:href="mazegenerator_8h.html" target="_top" xlink:title=" ">
<polygon fill="white" stroke="#666666" points="407.5,-74 308.5,-74 308.5,-55 407.5,-55 407.5,-74"/>
<text text-anchor="middle" x="358" y="-62" font-family="Helvetica,sans-Serif" font-size="10.00">mazegenerator.h</text>
</a>
</g>
</g>
<!-- Node4&#45;&gt;Node9 -->
<g id="edge8_Node000004_Node000009" class="edge">
<title>Node4&#45;&gt;Node9</title>
<g id="a_edge8_Node000004_Node000009"><a xlink:title=" ">
<path fill="none" stroke="#63b8ff" d="M391.39,-109.75C385.74,-102.26 377.46,-91.28 370.55,-82.13"/>
<polygon fill="#63b8ff" stroke="#63b8ff" points="373.3,-79.96 364.48,-74.09 367.71,-84.18 373.3,-79.96"/>
</a>
</g>
</g>
<!-- Node10 -->
<g id="Node000010" class="node">
<title>Node10</title>
<g id="a_Node000010"><a xlink:title=" ">
<polygon fill="#e0e0e0" stroke="#999999" points="313.5,-19 258.5,-19 258.5,0 313.5,0 313.5,-19"/>
<text text-anchor="middle" x="286" y="-7" font-family="Helvetica,sans-Serif" font-size="10.00">QVector</text>
</a>
</g>
</g>
<!-- Node9&#45;&gt;Node10 -->
<g id="edge9_Node000009_Node000010" class="edge">
<title>Node9&#45;&gt;Node10</title>
<g id="a_edge9_Node000009_Node000010"><a xlink:title=" ">
<path fill="none" stroke="#63b8ff" d="M346.43,-54.98C335.58,-47 319.12,-34.88 306.12,-25.31"/>
<polygon fill="#63b8ff" stroke="#63b8ff" points="307.91,-22.28 297.78,-19.17 303.76,-27.92 307.91,-22.28"/>
</a>
</g>
</g>
<!-- Node11 -->
<g id="Node000011" class="node">
<title>Node11</title>
<g id="a_Node000011"><a xlink:title=" ">
<polygon fill="#e0e0e0" stroke="#999999" points="384,-19 332,-19 332,0 384,0 384,-19"/>
<text text-anchor="middle" x="358" y="-7" font-family="Helvetica,sans-Serif" font-size="10.00">QRectF</text>
</a>
</g>
</g>
<!-- Node9&#45;&gt;Node11 -->
<g id="edge10_Node000009_Node000011" class="edge">
<title>Node9&#45;&gt;Node11</title>
<g id="a_edge10_Node000009_Node000011"><a xlink:title=" ">
<path fill="none" stroke="#63b8ff" d="M358,-54.75C358,-47.8 358,-37.85 358,-29.13"/>
<polygon fill="#63b8ff" stroke="#63b8ff" points="361.5,-29.09 358,-19.09 354.5,-29.09 361.5,-29.09"/>
</a>
</g>
</g>
<!-- Node12 -->
<g id="Node000012" class="node">
<title>Node12</title>
<g id="a_Node000012"><a xlink:title=" ">
<polygon fill="#e0e0e0" stroke="#999999" points="456,-19 402,-19 402,0 456,0 456,-19"/>
<text text-anchor="middle" x="429" y="-7" font-family="Helvetica,sans-Serif" font-size="10.00">random</text>
</a>
</g>
</g>
<!-- Node9&#45;&gt;Node12 -->
<g id="edge11_Node000009_Node000012" class="edge">
<title>Node9&#45;&gt;Node12</title>
<g id="a_edge11_Node000009_Node000012"><a xlink:title=" ">
<path fill="none" stroke="#63b8ff" d="M369.41,-54.98C380.11,-47 396.34,-34.88 409.16,-25.31"/>
<polygon fill="#63b8ff" stroke="#63b8ff" points="411.47,-27.96 417.39,-19.17 407.28,-22.35 411.47,-27.96"/>
</a>
</g>
</g>
<!-- Node14 -->
<g id="Node000014" class="node">
<title>Node14</title>
<g id="a_Node000014"><a xlink:title=" ">
<polygon fill="#e0e0e0" stroke="#999999" points="810,-74 754,-74 754,-55 810,-55 810,-74"/>
<text text-anchor="middle" x="782" y="-62" font-family="Helvetica,sans-Serif" font-size="10.00">QObject</text>
</a>
</g>
</g>
<!-- Node13&#45;&gt;Node14 -->
<g id="edge13_Node000013_Node000014" class="edge">
<title>Node13&#45;&gt;Node14</title>
<g id="a_edge13_Node000013_Node000014"><a xlink:title=" ">
<path fill="none" stroke="#63b8ff" d="M616.65,-109.98C651.35,-100.65 707,-85.68 744.02,-75.72"/>
<polygon fill="#63b8ff" stroke="#63b8ff" points="745.19,-79.03 753.94,-73.05 743.37,-72.27 745.19,-79.03"/>
</a>
</g>
</g>
<!-- Node15 -->
<g id="Node000015" class="node">
<title>Node15</title>
<g id="a_Node000015"><a xlink:title=" ">
<polygon fill="#e0e0e0" stroke="#999999" points="661.5,-74 590.5,-74 590.5,-55 661.5,-55 661.5,-74"/>
<text text-anchor="middle" x="626" y="-62" font-family="Helvetica,sans-Serif" font-size="10.00">QSerialPort</text>
</a>
</g>
</g>
<!-- Node13&#45;&gt;Node15 -->
<g id="edge14_Node000013_Node000015" class="edge">
<title>Node13&#45;&gt;Node15</title>
<g id="a_edge14_Node000013_Node000015"><a xlink:title=" ">
<path fill="none" stroke="#63b8ff" d="M591.77,-109.75C597.56,-102.26 606.06,-91.28 613.14,-82.13"/>
<polygon fill="#63b8ff" stroke="#63b8ff" points="616.01,-84.14 619.36,-74.09 610.47,-79.86 616.01,-84.14"/>
</a>
</g>
</g>
<!-- Node16 -->
<g id="Node000016" class="node">
<title>Node16</title>
<g id="a_Node000016"><a xlink:title=" ">
<polygon fill="#e0e0e0" stroke="#999999" points="736,-74 680,-74 680,-55 736,-55 736,-74"/>
<text text-anchor="middle" x="708" y="-62" font-family="Helvetica,sans-Serif" font-size="10.00">QDebug</text>
</a>
</g>
</g>
<!-- Node13&#45;&gt;Node16 -->
<g id="edge15_Node000013_Node000016" class="edge">
<title>Node13&#45;&gt;Node16</title>
<g id="a_edge15_Node000013_Node000016"><a xlink:title=" ">
<path fill="none" stroke="#63b8ff" d="M604.76,-109.98C624.73,-101.38 655.8,-87.99 678.65,-78.15"/>
<polygon fill="#63b8ff" stroke="#63b8ff" points="680.08,-81.34 687.88,-74.17 677.31,-74.91 680.08,-81.34"/>
</a>
</g>
</g>
<!-- Node17&#45;&gt;Node5 -->
<g id="edge19_Node000017_Node000005" class="edge">
<title>Node17&#45;&gt;Node5</title>
<g id="a_edge19_Node000017_Node000005"><a xlink:title=" ">
<path fill="none" stroke="#63b8ff" d="M158.27,-109.75C163.59,-102.34 171.36,-91.5 177.88,-82.41"/>
<polygon fill="#63b8ff" stroke="#63b8ff" points="180.86,-84.26 183.84,-74.09 175.17,-80.18 180.86,-84.26"/>
</a>
</g>
</g>
<!-- Node18 -->
<g id="Node000018" class="node">
<title>Node18</title>
<g id="a_Node000018"><a xlink:title=" ">
<polygon fill="#e0e0e0" stroke="#999999" points="50,-74 0,-74 0,-55 50,-55 50,-74"/>
<text text-anchor="middle" x="25" y="-62" font-family="Helvetica,sans-Serif" font-size="10.00">QChart</text>
</a>
</g>
</g>
<!-- Node17&#45;&gt;Node18 -->
<g id="edge17_Node000017_Node000018" class="edge">
<title>Node17&#45;&gt;Node18</title>
<g id="a_edge17_Node000017_Node000018"><a xlink:title=" ">
<path fill="none" stroke="#63b8ff" d="M131.6,-109.98C110.98,-101.38 78.89,-87.99 55.31,-78.15"/>
<polygon fill="#63b8ff" stroke="#63b8ff" points="56.35,-74.79 45.78,-74.17 53.66,-81.25 56.35,-74.79"/>
</a>
</g>
</g>
<!-- Node19 -->
<g id="Node000019" class="node">
<title>Node19</title>
<g id="a_Node000019"><a xlink:title=" ">
<polygon fill="#e0e0e0" stroke="#999999" points="142,-74 68,-74 68,-55 142,-55 142,-74"/>
<text text-anchor="middle" x="105" y="-62" font-family="Helvetica,sans-Serif" font-size="10.00">QLineSeries</text>
</a>
</g>
</g>
<!-- Node17&#45;&gt;Node19 -->
<g id="edge18_Node000017_Node000019" class="edge">
<title>Node17&#45;&gt;Node19</title>
<g id="a_edge18_Node000017_Node000019"><a xlink:title=" ">
<path fill="none" stroke="#63b8ff" d="M144.24,-109.75C137.53,-102.18 127.66,-91.05 119.49,-81.84"/>
<polygon fill="#63b8ff" stroke="#63b8ff" points="121.87,-79.25 112.62,-74.09 116.63,-83.89 121.87,-79.25"/>
</a>
</g>
</g>
</g>
</svg>
